<svg xmlns="http://www.w3.org/2000/svg" viewBox="-13539.002 -20752.543 21.983 21.982"><defs><style>.a{fill:#fff;}</style></defs><g transform="translate(-15357.077 -21267)"><g transform="translate(1818.075 514.456)"><path class="a" d="M17.591,31.6a10.991,10.991,0,1,0,7.039,19.389,15.415,15.415,0,0,0,1.42-1.42,11.1,11.1,0,0,0,2.532-6.978A10.976,10.976,0,0,0,17.591,31.6ZM15.43,51.174a8.791,8.791,0,0,1-6.3-6.3h2.532a3.591,3.591,0,0,1,2.655,1.111h0a3.843,3.843,0,0,1,1.111,2.655Zm-6.3-10.683a8.8,8.8,0,0,1,17.043,0ZM19.814,51.174V48.643a3.591,3.591,0,0,1,1.111-2.655h0a3.843,3.843,0,0,1,2.655-1.111h2.532A8.791,8.791,0,0,1,19.814,51.174Z" transform="translate(-6.6 -31.6)"/></g></g></svg>