<svg xmlns="http://www.w3.org/2000/svg" viewBox="13241.002 7464.4 14.702 14.835">
  <g id="Group_224" data-name="Group 224" transform="translate(13241.002 7464.4)">
    <path id="Path_92" data-name="Path 92" d="M10.7,1.334A2.676,2.676,0,0,1,13.368,4v6.831A2.676,2.676,0,0,1,10.7,13.5H4a2.676,2.676,0,0,1-2.668-2.668V4A2.676,2.676,0,0,1,4,1.334h6.7M10.7,0H4A4.014,4.014,0,0,0,0,4v6.831a4.014,4.014,0,0,0,4,4h6.7a4.014,4.014,0,0,0,4-4V4a4.014,4.014,0,0,0-4-4Z"/>
    <path id="Path_93" data-name="Path 93" d="M30.429,28.834a2.495,2.495,0,1,1-2.495,2.495,2.5,2.5,0,0,1,2.495-2.495m0-1.334a3.829,3.829,0,1,0,3.829,3.829A3.829,3.829,0,0,0,30.429,27.5Z" transform="translate(-23.051 -23.831)"/>
    <path id="Path_94" data-name="Path 94" d="M79.194,19.3a.894.894,0,1,0,.894.894.894.894,0,0,0-.894-.894Z" transform="translate(-67.854 -16.725)"/>
  </g>
</svg>
