<svg xmlns="http://www.w3.org/2000/svg" viewBox="-13538 -20658.418 21.365 15.939"><defs><style>.a{fill:#fff;}</style></defs><g transform="translate(-15356.137 -21203)"><g transform="translate(1818.137 544.583)"><g transform="translate(0 4.33)"><rect class="a" width="10.25" height="2.717"/><rect class="a" width="10.25" height="8.089" transform="translate(11.115 3.52)"/><rect class="a" width="10.25" height="2.717" transform="translate(11.115)"/><rect class="a" width="10.25" height="8.089" transform="translate(0 3.52)"/></g><g transform="translate(4.282)"><path class="a" d="M29.481,83.915a2.229,2.229,0,0,0,.432-2.285,2.1,2.1,0,0,0-2.779-1.05c-.741.309-2.408,2.285-3.334,3.334h5.681Z" transform="translate(-17.523 -80.388)"/><path class="a" d="M19.912,83.915a21.087,21.087,0,0,0-3.334-3.334A2.1,2.1,0,0,0,13.8,81.63a2.276,2.276,0,0,0,.432,2.285Z" transform="translate(-13.635 -80.388)"/></g></g></g></svg>