<svg xmlns="http://www.w3.org/2000/svg" viewBox="-13542 -20840.197 28.5 9.885"><defs><style>.a{fill:#fdfcfd;}</style></defs><g transform="translate(-14718 -21228)"><path class="a" d="M28.5,25.887a12.5,12.5,0,0,1-7.138-2.234L21,23.4a5.706,5.706,0,0,0-2.927-.8H13.2a5.968,5.968,0,0,0-2.927.8L5.905,25.887H3.389A3.408,3.408,0,0,0,0,29.3v1.823H4.185a3.831,3.831,0,0,1-.051-.539.963.963,0,0,1,.026-.282,2.893,2.893,0,0,1,.488-1.309,2.843,2.843,0,0,1,.8-.77,2.927,2.927,0,0,1,.488-.257,2.131,2.131,0,0,1,.539-.154,4.214,4.214,0,0,1,.591-.051,2.691,2.691,0,0,1,1.361.359,2.891,2.891,0,0,1,1.361,1.695,3.228,3.228,0,0,1,.128.847,2.844,2.844,0,0,1-.051.488h9.86a3.48,3.48,0,0,1-.051-.514,2.876,2.876,0,1,1,5.751,0,3.161,3.161,0,0,1-.051.514H28.5V25.887Z" transform="translate(1176 365.203)"/><circle class="a" cx="1.874" cy="1.874" r="1.874" transform="translate(1181.161 393.939)"/><circle class="a" cx="1.874" cy="1.874" r="1.874" transform="translate(1196.695 393.939)"/></g></svg>