<svg xmlns="http://www.w3.org/2000/svg" viewBox="-13540.001 -20377.889 23.86 14.912"><defs><style>.a{fill:#fff;}</style></defs><g transform="translate(-15358.385 -21009.211)"><g transform="translate(1818.384 631.323)"><g transform="translate(5.766)"><path class="a" d="M16.836,225.592a7.879,7.879,0,0,1,3.7.874l2.285,1.075h2.554a2.483,2.483,0,0,1,2.688,1.815h0a2.092,2.092,0,0,0,.6-.47l.336-.336.874-.874a3.982,3.982,0,0,0,.2-5.511,3.923,3.923,0,0,0-5.713-.134l-.941.941-.874-.874a4.081,4.081,0,0,0-5.646-.134,3.957,3.957,0,0,0-1.143,3.629Z" transform="translate(-15.679 -220.861)"/></g><path class="a" d="M24.642,232.944a7.909,7.909,0,0,1-3.495.874h-3.9a.4.4,0,0,1,0-.807h3.9a6.982,6.982,0,0,0,3.092-.739l.269-.134a1.71,1.71,0,0,0-1.949-1.479H19.8l-2.42-1.21a7.141,7.141,0,0,0-3.293-.739H10.864V227.5H7.1v9.275h3.629v-1.546l7.864,2.352a5.51,5.51,0,0,0,4.906-.471l7.46-4.369a2.49,2.49,0,0,0-3.428-1.479Z" transform="translate(-7.1 -223.038)"/></g></g></svg>