<svg xmlns="http://www.w3.org/2000/svg" width="23.1" height="25.85" viewBox="0 0 23.1 25.85">
  <g id="그룹_11752" data-name="그룹 11752" transform="translate(1481 1486)">
    <path id="패스_9892" data-name="패스 9892" d="M14.417,5.2V1.743L11.4,0,8.415,1.743V5.2L11.4,6.94M9.522,3.453a1.911,1.911,0,1,1,1.911,1.911A1.91,1.91,0,0,1,9.522,3.453M19.11,20.016v2.012l1.743,1.006L22.6,22.027V20.016L20.854,19.01Zm2.816,1.006a1.106,1.106,0,1,1-1.106-1.106,1.139,1.139,0,0,1,1.106,1.106m-17.87-.1v1.71l1.475.838,1.475-.838v-1.71l-1.475-.838Zm2.414.872a.939.939,0,0,1-1.878,0,.959.959,0,0,1,.939-.939.937.937,0,0,1,.939.939M18.306,4.928A1.86,1.86,0,0,0,20.15,3.084a1.844,1.844,0,1,0-3.688,0,1.839,1.839,0,0,0,1.844,1.844m0-3.52a1.66,1.66,0,0,1,1.676,1.676,1.676,1.676,0,0,1-3.353,0,1.681,1.681,0,0,1,1.676-1.676m0,3.252A1.576,1.576,0,1,0,16.73,3.084,1.574,1.574,0,0,0,18.306,4.66M17.266,2.079l.034-.034a.386.386,0,0,0,.6-.369h.034a.407.407,0,0,0,.738,0h.034a.394.394,0,0,0,.6.369l.034.034a.431.431,0,0,0-.034.4.421.421,0,0,0,.369.2v.034a.407.407,0,0,0,0,.738v.034a.394.394,0,0,0-.369.6l-.034.034a.386.386,0,0,0-.6.369h-.034a.4.4,0,0,0-.335-.235.412.412,0,0,0-.369.235H17.9a.394.394,0,0,0-.6-.369l-.034-.034a.386.386,0,0,0-.369-.6V3.453a.407.407,0,0,0,0-.738V2.682a.394.394,0,0,0,.369-.6m2.246,14.685A1.207,1.207,0,1,0,20.72,17.97a1.181,1.181,0,0,0-1.207-1.207m1.106.939a.3.3,0,0,0-.168.268.265.265,0,0,0,.168.268v.034a.3.3,0,0,0-.268.469l-.034.034a.3.3,0,0,0-.469.268h-.034a.3.3,0,0,0-.268-.168.265.265,0,0,0-.268.168h-.034a.29.29,0,0,0-.469-.268h-.067a.3.3,0,0,0-.268-.469v-.034A.3.3,0,0,0,18.607,18a.265.265,0,0,0-.168-.268V17.7a.3.3,0,0,0,.268-.469l.034-.034a.3.3,0,0,0,.469-.268h.034a.3.3,0,0,0,.268.168.265.265,0,0,0,.268-.168h.034a.29.29,0,0,0,.469.268l.034.034a.3.3,0,0,0,0,.335.271.271,0,0,0,.3.134ZM6.169,11.869a1.309,1.309,0,0,0-1.308,1.308,1.288,1.288,0,0,0,1.308,1.308,1.308,1.308,0,0,0,0-2.615m0,2.481a1.173,1.173,0,1,1,1.173-1.173A1.166,1.166,0,0,1,6.169,14.35m0-2.28a1.106,1.106,0,1,0,1.106,1.106A1.116,1.116,0,0,0,6.169,12.07m1.006.838a.248.248,0,0,0,0,.469v.034a.269.269,0,0,0-.235.436l-.034.034a.287.287,0,0,0-.436.268H6.437a.248.248,0,0,0-.469,0H5.934a.269.269,0,0,0-.436-.235l-.034-.034a.277.277,0,0,0-.235-.436v-.034a.248.248,0,0,0,0-.469v-.034a.269.269,0,0,0,.235-.436l.034-.034a.277.277,0,0,0,.436-.235h.034a.248.248,0,0,0,.469,0h.034a.269.269,0,0,0,.436.235l.034.034a.251.251,0,0,0,0,.3.3.3,0,0,0,.268.134ZM15.724,2.045a.939.939,0,1,0-.939-.939.983.983,0,0,0,.939.939m0-.134a.761.761,0,0,1-.536-.2l.469-.436c.034,0,.067.034.1.034a.123.123,0,0,0,.1-.034l.469.436a1,1,0,0,1-.6.2m.838-.8a.822.822,0,0,1-.2.536l-.436-.469V1.039L16.361.57a1.052,1.052,0,0,1,.2.536M15.724.3a.761.761,0,0,1,.536.2l-.469.436c-.034,0-.067-.034-.1-.034a.123.123,0,0,0-.1.034L15.121.5a1.082,1.082,0,0,1,.6-.2m-.6.3.436.469v.134l-.436.469a.761.761,0,0,1-.2-.536.708.708,0,0,1,.2-.536m.2,22.429a1.408,1.408,0,1,0,1.408,1.408,1.375,1.375,0,0,0-1.408-1.408m0,.168a1.254,1.254,0,0,1,.838.335l-.7.671a.174.174,0,0,0-.134-.067c-.067,0-.1,0-.134.034l-.7-.671a1.5,1.5,0,0,1,.838-.3m-1.24,1.24a1.2,1.2,0,0,1,.3-.8l.671.7v.2l-.671.7a1.4,1.4,0,0,1-.3-.8m1.24,1.24a1.254,1.254,0,0,1-.838-.335l.7-.671a.2.2,0,0,0,.134.034c.067,0,.1,0,.134-.034l.7.671a1.191,1.191,0,0,1-.838.335m.939-.436-.671-.7v-.2l.671-.7a1.315,1.315,0,0,1,.3.8,1.2,1.2,0,0,1-.3.8M4.962,4.895l-.369.369.5.5L5.465,5.4a1,1,0,0,0,.335.134v.536h.738V5.532A1.4,1.4,0,0,0,6.873,5.4l.369.369.5-.5-.369-.4a1,1,0,0,0,.134-.335h.536V3.789H7.51a1.4,1.4,0,0,0-.134-.335l.369-.369-.5-.5-.369.369a1,1,0,0,0-.335-.134v-.5H5.8V2.85a1.4,1.4,0,0,0-.335.134L5.1,2.615l-.5.5.369.369a1,1,0,0,0-.134.335H4.291V4.56h.536a3.478,3.478,0,0,0,.134.335M6.169,3.587a.57.57,0,1,1-.57.57.565.565,0,0,1,.57-.57m8.918-.2-.168.168.2.2.168-.168c.034.034.1.034.134.067v.2h.3V3.621a.254.254,0,0,0,.134-.067l.168.168.2-.2-.134-.134c.034-.034.034-.1.067-.134h.2v-.3h-.235a.254.254,0,0,0-.067-.134l.168-.168-.2-.2-.168.168c-.034-.034-.1-.034-.134-.067V2.313h-.3v.235a.254.254,0,0,0-.134.067l-.134-.168-.2.2.134.168c-.034.034-.034.1-.067.134h-.2v.3h.235a.2.2,0,0,0,.034.134m.5-.536a.235.235,0,1,1-.235.235.229.229,0,0,1,.235-.235M17.4,22.3a.222.222,0,0,1,.2.034c.034-.034.067-.034.1-.067a.158.158,0,0,1,.034-.2.214.214,0,0,1,.2,0c.034-.034.067-.034.067-.067-.067-.034-.067-.134,0-.2.034-.067.134-.067.2-.034.034-.034.034-.067.067-.1a.126.126,0,0,1-.034-.2.161.161,0,0,1,.2-.067c0-.034.034-.067.034-.1a.122.122,0,0,1-.067-.168.184.184,0,0,1,.168-.1c0-.034.034-.067.034-.1a.128.128,0,0,1-.1-.168.117.117,0,0,1,.168-.1v-.1a.134.134,0,0,1,0-.268v-.1a.138.138,0,0,1-.067-.268c0-.034-.034-.067-.034-.1a.128.128,0,1,1-.1-.235c0-.034-.034-.067-.034-.1-.067.034-.134,0-.2-.067a.158.158,0,0,1,.034-.2c-.034-.034-.034-.067-.067-.1a.158.158,0,0,1-.2-.034.214.214,0,0,1,0-.2l-.067-.067c-.034.067-.134.067-.2,0-.067-.034-.067-.134-.034-.2-.034-.034-.067-.034-.1-.067a.126.126,0,0,1-.2.034.161.161,0,0,1-.067-.2c-.034,0-.067-.034-.1-.034a.128.128,0,0,1-.235-.1c-.034,0-.067-.034-.1-.034a.128.128,0,0,1-.168.1.117.117,0,0,1-.1-.168h-.1a.134.134,0,0,1-.268,0h-.1a.138.138,0,0,1-.268.067c-.034,0-.067.034-.1.034a.128.128,0,0,1-.235.1c-.034,0-.067.034-.1.034.034.067,0,.134-.067.2a.222.222,0,0,1-.2-.034c-.034.034-.067.034-.1.067a.158.158,0,0,1-.034.2.214.214,0,0,1-.2,0l-.067.067c.067.034.067.134,0,.2-.034.067-.134.067-.2.034-.034.034-.034.067-.067.1a.126.126,0,0,1,.034.2.161.161,0,0,1-.2.067c0,.034-.034.067-.034.1a.122.122,0,0,1,.067.168.184.184,0,0,1-.168.1c0,.034-.034.067-.034.1a.128.128,0,0,1,.1.168.117.117,0,0,1-.168.1v.1a.134.134,0,1,1,0,.268v.1a.138.138,0,0,1,.067.268c0,.034.034.067.034.1a.128.128,0,1,1,.1.235c0,.034.034.067.034.1.067-.034.134,0,.2.067a.222.222,0,0,1-.034.2c.034.034.034.067.067.1a.158.158,0,0,1,.2.034.214.214,0,0,1,0,.2l.067.067c.034-.067.134-.067.2,0,.067.034.067.134.034.2.034.034.067.034.1.067a.126.126,0,0,1,.2-.034.161.161,0,0,1,.067.2.123.123,0,0,0,.1.034.128.128,0,1,1,.235.1c.034,0,.067.034.1.034a.128.128,0,0,1,.168-.1.117.117,0,0,1,.1.168h.1a.134.134,0,0,1,.268,0h.1a.138.138,0,1,1,.268-.067c.034,0,.067-.034.1-.034a.128.128,0,1,1,.235-.1c.034,0,.067-.034.1-.034a.161.161,0,0,1,.067-.2M2.447,15.02a.436.436,0,1,0-.436-.436.444.444,0,0,0,.436.436m-.7,1.911c.034,0,.067.034.1.034a.223.223,0,0,1,.168-.134c.067,0,.134.1.134.168H2.28a.153.153,0,0,1,.168-.134A.223.223,0,0,1,2.615,17h.134c0-.067.034-.168.134-.168.067,0,.168.034.168.134.034,0,.067-.034.1-.034a.159.159,0,0,1,.3-.1c.034,0,.067-.034.1-.067a.161.161,0,0,1,.067-.2.134.134,0,0,1,.2.067c.034-.034.067-.034.1-.067a.126.126,0,0,1,.034-.2.151.151,0,0,1,.2,0l.1-.1a.126.126,0,0,1,0-.2.158.158,0,0,1,.2-.034c.034-.034.034-.067.067-.1a.15.15,0,1,1,.134-.268c.034-.034.034-.067.067-.1a.2.2,0,0,1-.1-.2.163.163,0,0,1,.2-.1c0-.034.034-.067.034-.1a.223.223,0,0,1-.134-.168c0-.067.1-.134.168-.134v-.134a.153.153,0,0,1-.134-.168.223.223,0,0,1,.134-.168v-.134c-.067,0-.168-.034-.168-.134,0-.067.034-.168.134-.168,0-.034-.034-.067-.034-.134a.159.159,0,0,1-.1-.3c0-.034-.034-.067-.067-.1a.161.161,0,0,1-.2-.067.134.134,0,0,1,.067-.2c-.034-.034-.034-.067-.067-.1a.126.126,0,0,1-.2-.034.151.151,0,0,1,0-.2l-.1-.1a.126.126,0,0,1-.2,0,.158.158,0,0,1-.034-.2c-.034-.034-.067-.034-.1-.067a.15.15,0,1,1-.268-.134c-.034-.034-.067-.034-.1-.067a.2.2,0,0,1-.2.1.163.163,0,0,1-.1-.2c-.034,0-.067-.034-.134-.034,0,.067-.1.134-.168.134s-.134-.1-.134-.168H2.582a.153.153,0,0,1-.168.134.223.223,0,0,1-.168-.134H2.112c0,.067-.034.168-.134.168-.067,0-.168-.034-.168-.134-.034,0-.067.034-.1.034a.149.149,0,0,1-.1.2.149.149,0,0,1-.2-.1c0,.134-.034.134-.067.168a.161.161,0,0,1-.067.2.134.134,0,0,1-.2-.067c-.034.034-.067.034-.1.067a.126.126,0,0,1-.034.2.151.151,0,0,1-.2,0l-.1.1a.126.126,0,0,1,0,.2.158.158,0,0,1-.2.034c-.034.034-.034.067-.067.1a.161.161,0,0,1,.067.2.161.161,0,0,1-.2.067c-.034.034-.034.067-.067.1a.2.2,0,0,1,.1.2.163.163,0,0,1-.2.1c0,.034-.034.067-.034.134.067,0,.134.1.134.168s-.1.134-.168.134v.134a.153.153,0,0,1,.134.168A.223.223,0,0,1,0,14.819v.134c.067,0,.168.034.168.134,0,.067-.034.168-.134.168,0,.034.034.067.034.1a.149.149,0,0,1,.2.1.149.149,0,0,1-.1.2c0,.034.034.067.067.1a.161.161,0,0,1,.2.067.134.134,0,0,1-.067.2c.034.034.034.067.067.1a.126.126,0,0,1,.2.034.151.151,0,0,1,0,.2l.1.1a.126.126,0,0,1,.2,0,.158.158,0,0,1,.034.2c.034.034.067.034.1.067a.161.161,0,0,1,.2-.067c.1-.067.1.034.067.1.034.034.067.034.1.067a.2.2,0,0,1,.2-.1.141.141,0,0,1,.1.2m1.643-.4a.592.592,0,0,1-.771-.268.563.563,0,0,1,.268-.771.592.592,0,0,1,.771.268.6.6,0,0,1-.268.771m1.14-1.475a.586.586,0,1,1-.436-.7.568.568,0,0,1,.436.7M3.319,13.143a.6.6,0,1,1-.1.838.59.59,0,0,1,.1-.838m-.872-.7a.6.6,0,0,1,.6.57.6.6,0,0,1-.6.6.573.573,0,0,1-.57-.6.528.528,0,0,1,.57-.57m0,1.542a.6.6,0,1,1-.6.6.581.581,0,0,1,.6-.6m-1.71-.738a.6.6,0,1,1,.1.838.629.629,0,0,1-.1-.838m.3,2.246a.586.586,0,0,1-.268-1.14.6.6,0,0,1,.7.436.588.588,0,0,1-.436.7m.469,1.039a.577.577,0,1,1,.771-.268.6.6,0,0,1-.771.268M23.066,5.063c0-.1.034-.168.034-.268a.654.654,0,0,0-.034-.268h-.1a.477.477,0,0,0-.067-.2l.067-.034c-.034-.067-.067-.168-.1-.235a1.019,1.019,0,0,0-.168-.235l-.067.034c-.034-.067-.1-.1-.134-.134l.034-.067a1.419,1.419,0,0,0-.235-.168c-.067-.034-.168-.067-.235-.1l-.034.067c-.067-.034-.134-.034-.2-.067V3.319c-.1,0-.168-.034-.268-.034a.738.738,0,0,0-.268.034v.1a.477.477,0,0,0-.2.067l-.034-.067c-.067.034-.168.067-.235.1a1.019,1.019,0,0,0-.235.168l.034.067c-.067.034-.1.1-.134.134l-.067-.034a1.419,1.419,0,0,0-.168.235c-.034.067-.067.168-.1.235l.067.034c-.034.067-.034.134-.067.2h-.1c0,.1-.034.168-.034.268a.738.738,0,0,0,.034.268h.1a.477.477,0,0,0,.067.2l-.067.034c.034.067.067.168.1.235a1.019,1.019,0,0,0,.168.235l.067-.034c.034.067.1.1.134.134l-.034.067a1.419,1.419,0,0,0,.235.168c.067.034.168.067.235.1l.034-.067c.067.034.134.034.2.067v.1c.1,0,.168.034.268.034a.738.738,0,0,0,.268-.034v-.1a.477.477,0,0,0,.2-.067l.034.067c.067-.034.168-.067.235-.1a1.019,1.019,0,0,0,.235-.168L22.5,5.9c.067-.034.1-.1.134-.134L22.7,5.8c.067-.067.1-.134.168-.2.034-.067.067-.168.1-.235L22.9,5.331c.034-.067.034-.134.067-.2h.1Zm-1.509.8a1.073,1.073,0,1,1,1.073-1.073,1.059,1.059,0,0,1-1.073,1.073m0-1.945a.916.916,0,0,0-.637.268.858.858,0,0,0-.268.637.916.916,0,0,0,.268.637.858.858,0,0,0,.637.268.916.916,0,0,0,.637-.268.858.858,0,0,0,.268-.637.916.916,0,0,0-.268-.637.858.858,0,0,0-.637-.268M7.812,19.647a1.2,1.2,0,0,0,.335-.235l-.067-.134c.067-.067.168-.134.2-.2l.134.067a1.2,1.2,0,0,0,.235-.335,1.8,1.8,0,0,0,.168-.369l-.1-.067a.979.979,0,0,0,.067-.3h.134a2.431,2.431,0,0,0,0-.8H8.784c-.034-.1-.034-.2-.067-.3l.134-.067a1.8,1.8,0,0,0-.168-.369,1.2,1.2,0,0,0-.235-.335l-.134.067a1.549,1.549,0,0,0-.235-.235l.067-.134a1.2,1.2,0,0,0-.335-.235,1.8,1.8,0,0,0-.369-.168l-.067.134a.979.979,0,0,0-.3-.067v-.134a1.632,1.632,0,0,0-.4-.034,1.632,1.632,0,0,0-.4.034v.134c-.1.034-.2.034-.3.067L5.9,15.489a1.8,1.8,0,0,0-.369.168,1.2,1.2,0,0,0-.335.235l.067.134a1.458,1.458,0,0,0-.2.235l-.134-.067a1.2,1.2,0,0,0-.235.335,1.8,1.8,0,0,0-.168.369l.134.067a.979.979,0,0,0-.067.3H4.459a2.431,2.431,0,0,0,0,.8h.134c.034.1.034.2.067.3l-.134.067a1.8,1.8,0,0,0,.168.369,1.2,1.2,0,0,0,.235.335l.134-.067c.067.067.134.168.235.2l-.067.134a1.2,1.2,0,0,0,.335.235,1.8,1.8,0,0,0,.369.168L6,19.68a.979.979,0,0,0,.3.067v.134a1.632,1.632,0,0,0,.4.034,1.632,1.632,0,0,0,.4-.034v-.1c.1-.034.2-.034.3-.067l.067.134c.1-.067.235-.134.335-.2m-1.14-.369a1.643,1.643,0,1,1,1.643-1.643,1.645,1.645,0,0,1-1.643,1.643M7.644,16.7a1.341,1.341,0,0,0-2.28.939,1.217,1.217,0,0,0,.4.939,1.345,1.345,0,0,0,.939.4,1.217,1.217,0,0,0,.939-.4,1.345,1.345,0,0,0,.4-.939,1.685,1.685,0,0,0-.4-.939M1.274,9.455c.034.134.067.268.1.369l-.168.1a2.048,2.048,0,0,0,.235.469,4.9,4.9,0,0,0,.3.436l.168-.1A2.023,2.023,0,0,0,2.179,11l-.1.168a4.9,4.9,0,0,0,.436.3c.168.1.335.168.469.235l.1-.168.4.1V11.8a2.538,2.538,0,0,0,.5.034c.168,0,.369-.034.536-.034v-.168c.134-.034.268-.067.369-.1L5,11.7a2.048,2.048,0,0,0,.469-.235,4.9,4.9,0,0,0,.436-.3L5.8,11a2.023,2.023,0,0,0,.268-.268l.168.1a4.9,4.9,0,0,0,.3-.436c.1-.168.168-.335.235-.469l-.168-.1.1-.4h.168a2.538,2.538,0,0,0,.034-.5c0-.168-.034-.369-.034-.536H6.705l-.1-.4.168-.1a2.048,2.048,0,0,0-.235-.469,4.9,4.9,0,0,0-.3-.436l-.168.1A2.023,2.023,0,0,0,5.8,6.806l.1-.168a4.9,4.9,0,0,0-.436-.3C5.3,6.236,5.13,6.169,5,6.1l-.1.168-.4-.1V6a2.538,2.538,0,0,0-.5-.034A2.884,2.884,0,0,0,3.453,6v.168l-.4.1-.034-.134a2.048,2.048,0,0,0-.469.235,4.9,4.9,0,0,0-.436.3l.1.168a2.023,2.023,0,0,0-.268.268l-.168-.1a4.9,4.9,0,0,0-.3.436,3.065,3.065,0,0,0-.235.469l.168.1-.1.4h-.2a2.538,2.538,0,0,0-.034.5c0,.168.034.369.034.536h.168ZM4.023,6.806A2.112,2.112,0,1,1,1.911,8.918,2.1,2.1,0,0,1,4.023,6.806m0,3.856a1.872,1.872,0,0,0,1.24-.5,1.745,1.745,0,0,0,.5-1.24,1.872,1.872,0,0,0-.5-1.24,1.745,1.745,0,0,0-1.24-.5,1.872,1.872,0,0,0-1.24.5,1.745,1.745,0,0,0-.5,1.24,1.872,1.872,0,0,0,.5,1.24,1.745,1.745,0,0,0,1.24.5m2.816-3.42a1.468,1.468,0,0,0,.436,1.073,1.522,1.522,0,0,0,1.073.436,1.468,1.468,0,0,0,1.073-.436,1.522,1.522,0,0,0,.436-1.073,1.468,1.468,0,0,0-.436-1.073A1.375,1.375,0,0,0,8.382,5.7a1.468,1.468,0,0,0-1.073.436,1.639,1.639,0,0,0-.469,1.106m2.548.872-.771-.771H9.723a1.44,1.44,0,0,1-.335.771m.335-.972H8.65l.738-.771a1.44,1.44,0,0,1,.335.771M8.482,5.9a1.692,1.692,0,0,1,.771.3l-.771.771Zm0,1.609.771.771a1.44,1.44,0,0,1-.771.335ZM7.041,7.342H8.114l-.738.771a1.44,1.44,0,0,1-.335-.771m1.24,1.24a1.692,1.692,0,0,1-.771-.3l.771-.771Zm0-2.682V6.974L7.51,6.2a1.692,1.692,0,0,1,.771-.3m-.134,1.24H7.041a1.44,1.44,0,0,1,.335-.771ZM18.44,22.429a1.019,1.019,0,0,0-.771.335,1.155,1.155,0,0,0-.335.771,1.019,1.019,0,0,0,.335.771,1.155,1.155,0,0,0,.771.335h0a1.019,1.019,0,0,0,.771-.335,1.155,1.155,0,0,0,.335-.771,1.147,1.147,0,0,0-1.106-1.106M17.468,23.6h.771l-.536.536a1.254,1.254,0,0,1-.235-.536m.905.872a.791.791,0,0,1-.536-.235l.536-.536Zm.134,0V23.7l.536.536a.982.982,0,0,1-.536.235m.637-.335-.536-.536h.771a.768.768,0,0,1-.235.536m-.6-.7h0c-.067-.067-.134-.067-.168,0H17.5a1,1,0,0,1,.268-.6.908.908,0,0,1,.671-.268,1,1,0,0,1,.671.268.84.84,0,0,1,.268.6Zm-2.816-17A1.019,1.019,0,0,0,16.5,6.1a1.155,1.155,0,0,0,.335-.771A1.019,1.019,0,0,0,16.5,4.56a1.136,1.136,0,0,0-1.542,0,1.155,1.155,0,0,0-.335.771,1.019,1.019,0,0,0,.335.771,1.071,1.071,0,0,0,.771.335m-.939-1.073a1.065,1.065,0,0,1,.268-.671.972.972,0,0,1,1.341,0,1,1,0,0,1,.268.671v.1a1.777,1.777,0,0,0-1.878,0v-.1m.939.168a1.44,1.44,0,0,1,.838.235A.6.6,0,0,1,16.395,6a1,1,0,0,1-.671.268A1.065,1.065,0,0,1,15.054,6a1.019,1.019,0,0,1-.168-.235,1.592,1.592,0,0,1,.838-.235M13.143,22.765h.905V21.491h-.939a2.9,2.9,0,0,0-.235-.57l.637-.637-.905-.905-.671.671a2.9,2.9,0,0,0-.57-.235v-.905H10.058v.939a2.9,2.9,0,0,0-.57.235l-.637-.637-.905.905.671.671a2.9,2.9,0,0,0-.235.57H7.476v1.274h.905a2.9,2.9,0,0,0,.235.57l-.637.637.905.905.671-.671a2.9,2.9,0,0,0,.57.235v.939H11.4v-.939a2.9,2.9,0,0,0,.57-.235l.637.637.905-.905-.671-.671a1.465,1.465,0,0,0,.3-.6m-2.38,1.274a1.878,1.878,0,1,1,1.878-1.878,1.874,1.874,0,0,1-1.878,1.878m0-3.252a1.408,1.408,0,1,0,1.408,1.408,1.417,1.417,0,0,0-1.408-1.408M18.674,6.638a.939.939,0,1,0,.939.939.916.916,0,0,0-.939-.939M19.948,5.7l-.436.469A2.051,2.051,0,0,0,19.11,6V5.364h-.872V6a2.051,2.051,0,0,0-.4.168L17.4,5.733l-.637.6.436.469a2.051,2.051,0,0,0-.168.4h-.6V8.08h.637a2.051,2.051,0,0,0,.168.4l-.436.436.6.6.436-.469a2.051,2.051,0,0,0,.4.168v.637h.872V9.22a2.051,2.051,0,0,0,.4-.168l.436.436.6-.6-.469-.469a2.051,2.051,0,0,0,.168-.4h.637V7.141H20.25a2.051,2.051,0,0,0-.168-.4l.436-.436ZM18.674,8.885a1.274,1.274,0,1,1,1.274-1.274,1.273,1.273,0,0,1-1.274,1.274M4.526,19.11a1.442,1.442,0,1,0-1.442,1.442A1.452,1.452,0,0,0,4.526,19.11M3.051,20.217a1.073,1.073,0,1,1,1.073-1.073,1.059,1.059,0,0,1-1.073,1.073m0-2.012a.939.939,0,1,0,.939.939.937.937,0,0,0-.939-.939" transform="translate(-1481 -1486)" fill="#fff"/>
  </g>
</svg>
