<svg xmlns="http://www.w3.org/2000/svg" viewBox="13301.063 7465.94 18.436 12.856">
  <path id="Path_95" data-name="Path 95" d="M18.276,3.471a2.163,2.163,0,0,1-.013-.294c-.013-.521-.214-2.87-2.443-2.99C13.31.04,9.318,0,9.318,0H9.091S5.113.04,2.59.174C.36.294.174,2.657.16,3.177c0,.093-.013.2-.013.294C.107,4,0,5.54,0,6.341v.174c0,.8.107,2.336.147,2.87a2.163,2.163,0,0,1,.013.294c.013.534.2,2.884,2.443,3,2.51.133,6.5.174,6.5.174h.227s3.978-.04,6.5-.174c2.243-.12,2.43-2.47,2.443-2.99,0-.093.013-.2.013-.294.04-.547.147-2.083.147-2.87V6.354C18.423,5.54,18.316,4,18.276,3.471ZM7.316,8.878V3.7l4.966,2.6Z" transform="translate(13301.063 7465.94)"/>
</svg>
